<?xml version="1.0" encoding="UTF-8" standalone="no" ?>
<!DOCTYPE svg PUBLIC "-//W3C//DTD SVG 1.1//EN" "http://www.w3.org/Graphics/SVG/1.1/DTD/svg11.dtd">
<svg xmlns="http://www.w3.org/2000/svg" xmlns:xlink="http://www.w3.org/1999/xlink" version="1.1" width="100" height="100" viewBox="0 0 100 100" xml:space="preserve">
<desc>Created with Fabric.js 5.3.0</desc>
<defs>
</defs>
<g transform="matrix(4.8071417453 0 0 4.8071417453 50.0742942051 50.0742942051)" id="tMiqfC4OJ4YfeItB3UOFh"  >
<path style="stroke: rgb(243,146,174); stroke-width: 0; stroke-dasharray: none; stroke-linecap: butt; stroke-dashoffset: 0; stroke-linejoin: miter; stroke-miterlimit: 4; fill: rgb(44,45,66); fill-rule: nonzero; opacity: 1;" vector-effect="non-scaling-stroke"  transform=" translate(0, 0)" d="M -10.40119 -10.40119 L 10.40119 -10.40119 L 10.40119 10.40119 L -10.40119 10.40119 z" stroke-linecap="round" />
</g>
<g transform="matrix(0.1331114796 0 0 0.1331114809 50 72.0753651188)" id="C53wOEk17bGHSXDhM5jTs"  >
<path style="stroke: none; stroke-width: 1; stroke-dasharray: none; stroke-linecap: butt; stroke-dashoffset: 0; stroke-linejoin: miter; stroke-miterlimit: 4; fill: rgb(255,189,150); fill-rule: nonzero; opacity: 1;" vector-effect="non-scaling-stroke"  transform=" translate(-300, -466.957)" d="M 177.907 333.914 L 177.907 600 L 300 533.475 L 422.093 600 L 422.093 333.914 z" stroke-linecap="round" />
</g>
<g transform="matrix(0.1331114796 0 0 0.1331114809 50 36.6497171346)" id="U8WcWEHVwuVOGecbazdyS"  >
<path style="stroke: none; stroke-width: 1; stroke-dasharray: none; stroke-linecap: butt; stroke-dashoffset: 0; stroke-linejoin: miter; stroke-miterlimit: 4; fill: rgb(136,219,168); fill-rule: nonzero; opacity: 1;" vector-effect="non-scaling-stroke"  transform=" translate(-300, -199.706)" d="M 300 15.707 C 198.543 15.707 116.001 98.249 116.001 199.70499999999998 C 116.001 301.163 198.543 383.705 300 383.705 C 401.457 383.705 483.999 301.163 483.999 199.70499999999998 C 483.999 98.25 401.457 15.707 300 15.707 z M 300 380.215 C 200.46699999999998 380.215 119.49199999999999 299.23699999999997 119.49199999999999 199.70499999999998 C 119.49199999999999 100.173 200.468 19.198 300 19.198 C 399.53200000000004 19.198 480.50800000000004 100.172 480.50800000000004 199.704 C 480.50800000000004 299.236 399.533 380.215 300 380.215 z" stroke-linecap="round" />
</g>
<g transform="matrix(0.1331114796 0 0 0.1331114809 50.0742942051 36.6497171346)" id="OuCIt45JSxjRwsLu5R8Ro"  >
<path style="stroke: none; stroke-width: 1; stroke-dasharray: none; stroke-linecap: butt; stroke-dashoffset: 0; stroke-linejoin: miter; stroke-miterlimit: 4; fill: rgb(255,101,122); fill-rule: nonzero; opacity: 1;" vector-effect="non-scaling-stroke"  transform=" translate(0, 0)" d="M 180.509 -0.0025 C 180.509 99.5305 99.53299999999999 180.5075 0.0009999999999763531 180.5075 C -99.53100000000002 180.5075 -180.50700000000003 99.5295 -180.50700000000003 -0.0024999999999977263 C -180.50700000000003 -99.5345 -99.53200000000004 -180.5095 -2.842170943040401e-14 -180.5095 C 99.53199999999997 -180.5095 180.50899999999996 -99.5355 180.50899999999996 -0.0024999999999977263 z M 199.707 -0.0005 C 199.707 110.2945 110.29499999999999 199.7075 0 199.7075 C -110.295 199.7075 -199.707 110.2955 -199.707 -0.0004999999999881766 C -199.707 -110.29549999999999 -110.29499999999999 -199.70749999999998 0 -199.70749999999998 C 110.295 -199.70749999999998 199.707 -110.29549999999998 199.707 -0.0004999999999881766 z M 183.999 -0.0025 C 183.999 -101.4575 101.457 -184.0005 0 -184.0005 C -101.457 -184.0005 -183.999 -101.45849999999999 -183.999 -0.0024999999999977263 C -183.999 101.4555 -101.457 183.9975 0 183.9975 C 101.457 183.9975 183.999 101.4555 183.999 -0.0024999999999977263 z" stroke-linecap="round" />
</g>
<g transform="matrix(0.1474696663 0 0 0.1474696663 -17.2824028406 147.3125369777)" id="UDBCls3D0yqOvg-xMNVrD"  >
<g style="" vector-effect="non-scaling-stroke"   >
		<g transform="matrix(1 0 0 1 0 23.2)" id="GtfDVvSloMr0Obp1KHC0p"  >
<path style="stroke: none; stroke-width: 1; stroke-dasharray: none; stroke-linecap: butt; stroke-dashoffset: 0; stroke-linejoin: miter; stroke-miterlimit: 4; fill: rgb(179,181,179); fill-rule: nonzero; opacity: 1;" vector-effect="non-scaling-stroke"  transform=" translate(-40, -63.2)" d="M 80 56.2 L 40 76.6 L 0 56.2 L 12.4 49.800000000000004 L 40 63.800000000000004 L 67.6 49.800000000000004 L 80 56.2 z" stroke-linecap="round" />
</g>
		<g transform="matrix(1 0 0 1 0 7.1)" id="9mrZl0RKICebW8rrE49pl"  >
<path style="stroke: none; stroke-width: 1; stroke-dasharray: none; stroke-linecap: butt; stroke-dashoffset: 0; stroke-linejoin: miter; stroke-miterlimit: 4; fill: rgb(179,181,179); fill-rule: nonzero; opacity: 1;" vector-effect="non-scaling-stroke"  transform=" translate(-40, -47.1)" d="M 67.6 33.7 L 40 47.8 L 12.399999999999999 33.8 L 0 40.1 L 40 60.5 L 80 40.1 L 67.6 33.7 z" stroke-linecap="round" />
</g>
		<g transform="matrix(1 0 0 1 0 -16.1)" id="PGwjiyWgnjoVYS8h7Kkh7"  >
<path style="stroke: none; stroke-width: 1; stroke-dasharray: none; stroke-linecap: butt; stroke-dashoffset: 0; stroke-linejoin: miter; stroke-miterlimit: 4; fill: rgb(179,181,179); fill-rule: nonzero; opacity: 1;" vector-effect="non-scaling-stroke"  transform=" translate(-40, -23.9)" d="M 40 3.4 L 0 24 L 40 44.4 L 80 24 L 40 3.4 z" stroke-linecap="round" />
</g>
</g>
</g>
<g transform="matrix(0.3171783652 0.1154434839 -0.1154434839 0.3171783652 50.0742942051 36.6497171346)" id="pWoqQcgx3BLtGPT3fv4Ky"  >
<path style="stroke: none; stroke-width: 1; stroke-dasharray: none; stroke-linecap: butt; stroke-dashoffset: 0; stroke-linejoin: miter; stroke-miterlimit: 4; fill: rgb(240,240,240); fill-rule: nonzero; opacity: 1;" vector-effect="non-scaling-stroke"  transform=" translate(-36.3, -44.25)" d="M 36.3 8.5 C 16.499999999999996 8.5 0.5 24.5 0.5 44.3 C 0.6 64 16.6 80 36.3 80 C 56 80 72 64 72.1 44.3 L 36.3 44.3 L 36.3 8.5 z" stroke-linecap="round" />
</g>
<g transform="matrix(0.2219654027 0 0 0.2219654027 50.0742942051 36.6497171346)" id="MDidoaos98vfqewJREu3v"  >
<path style="stroke: none; stroke-width: 1; stroke-dasharray: none; stroke-linecap: butt; stroke-dashoffset: 0; stroke-linejoin: miter; stroke-miterlimit: 4; fill: rgb(254,222,93); fill-rule: nonzero; opacity: 1;" vector-effect="non-scaling-stroke"  transform=" translate(-40, -40)" d="M 40 0 C 17.9 0 0 17.9 0 40 C 0 62.1 17.9 80 40 80 C 62.1 80 80 62.1 80 40 C 80 17.9 62.1 0 40 0 z" stroke-linecap="round" />
</g>
<g transform="matrix(0.2219654027 0 0 0.2219654027 50 36.6497171346)" id="WDlKTwKZABgpkqfclF_iU"  >
<path style="stroke: none; stroke-width: 0; stroke-dasharray: none; stroke-linecap: butt; stroke-dashoffset: 0; stroke-linejoin: miter; stroke-miterlimit: 4; fill: rgb(186,215,97); fill-rule: nonzero; opacity: 1;" vector-effect="non-scaling-stroke"  transform=" translate(-39.95, -28.65)" d="M 36.6 40.3 L 36.6 17 C 36.6 15.4 37.9 14.2 39.4 14.2 L 40.5 14.2 C 42.1 14.2 43.3 15.5 43.3 17 L 43.3 40.3 C 43.3 41.9 42 43.099999999999994 40.5 43.099999999999994 L 39.4 43.099999999999994 C 37.9 43.1 36.6 41.9 36.6 40.3 z" stroke-linecap="round" />
</g>
</svg>